#!OML:ASF F:\VICON\USERDATA\INSTALL\rory3\rory3.ASF
:FULLY-SPECIFIED
:DEGREES
45
root -0.05246766155691118 18.154659649720667 11.952644737459027 -3.255426966423805 -2.6648306083989213 -6.461272211387605
lfemur -24.553765066265477 3.4991049538391263 -12.969140999838164
ltibia 62.05413585199834
lfoot -6.397770293932207 0.7466164232261723
ltoes -5.2706388000948445
rfemur -3.0360862731937264 6.767248472808073 33.73967405708303
rtibia 27.92690604389487
rfoot -17.280574689967626 -6.636952855817325
rtoes 7.535380120089361
lowerback 10.027929340198014 1.3811624810983012 5.53006931476428
upperback 0.5205450789491926 2.593899548129086 2.3072296613439853
thorax -4.994761944417496 1.177267854298405 -0.9173110367951339
lowerneck -16.366285040741378 -3.0396517769605778 -1.6554323316889399
upperneck 21.25238811045746 -3.9715159986715256 0.9120477779034846
head 9.4779828838094 -1.890425906082741 0.06510945210211497
lclavicle -1.7807988205877786e-15 1.0663412661216364e-15
lhumerus -33.52411120863219 -0.5124235512600117 84.57045255019591
lradius 26.129727740971333
lwrist 5.920955267559742
lhand -26.73027723392197 23.780253295875905
lfingers 7.12502
lthumb -0.15953766354825621 53.76042126307774
rclavicle -1.7807988205877786e-15 1.0663412661216364e-15
rhumerus -26.32246655238782 -14.506335826962237 -81.00687825041013
rradius 24.726731905639728
rwrist 4.568208604811259
rhand -17.706782429043074 20.631532998634082
rfingers 7.12502
rthumb 8.553257413672537 -9.170589241024292
46
root -0.03385048977235133 18.094807328412706 12.510809098192546 -2.682635776581406 -3.4790409594051965 -7.08759009383108
lfemur -26.591917742583476 2.4100700710841134 -12.264115029670744
ltibia 52.660330103465725
lfoot -7.040790857667978 3.7802993819896242
ltoes -4.3475472216563285
rfemur -0.6582376916000978 6.823271158407749 34.523478348198324
rtibia 26.61503588425459
rfoot -18.779995189138766 -7.007572638097481
rtoes 7.222340907629217
lowerback 9.995292740379213 1.7574861767363892 6.410393506644763
upperback 0.4680193904120017 3.1872587307685474 2.238062024774192
thorax -4.983164674108363 1.4498349980618586 -1.538998794334748
lowerneck -16.60202459696766 -3.03938778635487 -1.5806640825134142
upperneck 20.962143134393184 -3.9769167528829663 0.8929288659371166
head 9.407269480444873 -1.888163838529951 0.046739132944342024
lclavicle -1.8828907520401244e-15 9.704815439462967e-16
lhumerus -34.57387084617972 0.11078491438421989 84.50768925945354
lradius 25.91949802174894
lwrist 6.036945549504834
lhand -26.89377711652913 23.40407815699257
lfingers 7.12502
lthumb -0.3174529746514827 53.38075376788985
rclavicle -1.8828907520401244e-15 9.704815439462967e-16
rhumerus -25.208476987340802 -12.208931763467685 -81.67727681623056
rradius 26.11044240214559
rwrist 2.937426289632049
rhand -18.056700186548618 21.66265864130806
rfingers 7.12502
rthumb 8.215547917051389 -8.155900706527255
47
root -0.025099805738433068 18.02847298045103 12.782331177229656 -1.9838618660473006 -4.2308368314307625 -7.7908209724845445
lfemur -27.72104181599605 0.2974351738557699 -11.056313198627901
ltibia 40.70807551925582
lfoot -7.080290721985888 6.592880002067125
ltoes -3.688011240019943
rfemur 1.8858616342340362 6.918756999447956 35.159047643982674
rtibia 24.33336005914816
rfoot -20.202902805725714 -7.383800573200723
rtoes 6.5329708236411825
lowerback 9.826408285268226 2.070740113133684 7.113461153377641
upperback 0.40351401406635334 3.6729580479265196 2.2201289384946943
thorax -4.921302900638481 1.6745639795799705 -2.0573075005744017
lowerneck -16.86355898534947 -3.048348718821269 -1.5181391879500006
upperneck 20.655179476429208 -3.997012471828401 0.8821715335676719
head 9.332828587001318 -1.8916416448003313 0.0303513631746941
lclavicle -2.218262018293302e-15 6.612475128867877e-16
lhumerus -35.571444866748465 0.7439842756942325 84.41873684335458
lradius 25.51558925408433
lwrist 5.725175778866083
lhand -27.08221873002983 23.09401903998199
lfingers 7.12502
lthumb -0.4994497547845677 53.06700408939181
rclavicle -2.218262018293302e-15 6.612475128867879e-16
rhumerus -24.198875838062442 -10.48258444444725 -82.1249912256189
rradius 27.304700689288538
rwrist 1.618709787149947
rhand -18.34230388320627 22.81813552575521
rfingers 7.12502
rthumb 7.939901109640097 -7.012701907832163
48
root 0.003385600285300161 17.95782808180608 13.676332643176565 -1.253586442686027 -4.8209646485175615 -8.251606784263062
lfemur -27.473482263823392 -2.355264597477256 -9.41951404713356
ltibia 28.379430166617997
lfoot -6.840201568649422 9.176670946904173
ltoes -3.1801887645278573
rfemur 5.072988389132291 7.077306827756562 35.73808683587799
rtibia 22.580851847720474
rfoot -21.165500848254815 -7.48213104663052
rtoes 5.229420590283788
lowerback 9.581974432016068 2.4178268695366163 7.73352083553736
upperback 0.34737470475039756 4.180958299185411 2.229164963305328
thorax -4.807864768412926 1.9144392171807292 -2.3887996058480603
lowerneck -17.088213133147683 -3.0551454592349474 -1.4380034017832464
upperneck 20.41942431819934 -4.017623574948667 0.945291677058407
head 9.283839075601291 -1.8942886015134008 0.0335196850353163
lclavicle -2.0462637340750866e-15 8.204713262344182e-16
lhumerus -36.32437895548824 1.679783958587334 84.29286043407845
lradius 24.913569190289305
lwrist 5.133690110384053
lhand -27.064560784904614 23.2810488176579
lfingers 7.12502
lthumb -0.48239524132954315 53.252041196604985
rclavicle -2.0462637340750866e-15 8.204713262344182e-16
rhumerus -23.178356598616865 -9.203886165667377 -82.32322981611009
rradius 28.35182593787786
rwrist 0.8524897974406409
rhand -18.490899890540277 23.73438601760124
rfingers 7.12502
rthumb 7.796472985969279 -6.103287365967924
